<?xml version="1.0" encoding="UTF-8"?>
<svg width="160px" height="20px" viewBox="0 0 160 20" version="1.1" xmlns="http://www.w3.org/2000/svg" xmlns:xlink="http://www.w3.org/1999/xlink">
    <!-- Generator: Sketch 42 (36781) - http://www.bohemiancoding.com/sketch -->
    <title>PLAYJUNKIE Copy</title>
    <desc>Created with Sketch.</desc>
    <defs>
        <linearGradient x1="0%" y1="-33.2579828%" x2="93.6370781%" y2="141.738299%" id="linearGradient-1">
            <stop stop-color="#FF941D" offset="0%"></stop>
            <stop stop-color="#FF491C" offset="100%"></stop>
        </linearGradient>
    </defs>
    <g id="Page-1" stroke="none" stroke-width="1" fill="none" fill-rule="evenodd">
        <g id="Artboard-18" transform="translate(-137.000000, -180.000000)" fill="url(#linearGradient-1)">
            <path d="M143.967328,191.080569 C145.105237,191.080569 145.912021,190.791433 146.387705,190.213151 C146.863388,189.634869 147.101226,188.879384 147.101226,187.946671 C147.101226,187.480315 147.045264,187.055937 146.933339,186.673525 C146.821413,186.291113 146.639537,185.960005 146.387705,185.680191 C146.135872,185.400377 145.814091,185.181193 145.422352,185.022632 C145.030613,184.864071 144.54561,184.784791 143.967328,184.784791 L142.092585,184.784791 L142.092585,191.080569 L143.967328,191.080569 Z M142.092585,199.502921 L137,199.502921 L137,180.475681 L144.219159,180.475681 C145.506302,180.475681 146.644194,180.666884 147.63287,181.049296 C148.621545,181.431708 149.45631,181.958683 150.13719,182.630236 C150.81807,183.301789 151.335718,184.089919 151.690149,184.994651 C152.04458,185.899382 152.221792,186.883379 152.221792,187.946671 C152.221792,189.009963 152.04458,189.99396 151.690149,190.898691 C151.335718,191.803423 150.81807,192.586889 150.13719,193.249115 C149.45631,193.911341 148.621545,194.433652 147.63287,194.816064 C146.644194,195.198477 145.506302,195.38968 144.219159,195.38968 L142.092585,195.38968 L142.092585,199.502921 Z M154.572216,180.475681 L159.664801,180.475681 L159.664801,195.221792 L167.751378,195.221792 L167.751378,199.502921 L154.572216,199.502921 L154.572216,180.475681 Z M177.768661,189.653526 L175.865937,194.074562 L179.727347,194.074562 L177.768661,189.653526 Z M173.543494,199.502921 L168.562834,199.502921 L177.824623,180.139906 C177.861932,180.046635 177.917894,180 177.992511,180 C178.067128,180 178.12309,180.046635 178.160398,180.139906 L187.394206,199.502921 L182.133734,199.502921 L181.406221,197.88001 L174.243025,197.88001 L173.543494,199.502921 Z M183.618056,180.475681 L189.214303,180.475681 L193.523413,188.226483 L197.804543,180.475681 L203.148959,180.475681 L195.985762,192.787425 L195.985762,199.502921 L190.893177,199.502921 L190.893177,192.927331 L183.618056,180.475681 Z M212.348777,194.158505 C212.348777,195.967968 211.840457,197.357689 210.8238,198.32771 C209.807143,199.297731 208.375451,199.782734 206.52868,199.782734 C204.924415,199.782734 203.627964,199.488934 202.639289,198.901325 C201.650613,198.313716 200.913781,197.553567 200.428771,196.620854 L204.2622,194.158505 C204.467397,194.494282 204.691245,194.788082 204.93375,195.039914 C205.176255,195.291747 205.512027,195.417661 205.941074,195.417661 C206.351468,195.417661 206.673249,195.29641 206.906427,195.053905 C207.139605,194.8114 207.256193,194.391685 207.256193,193.794749 L207.256193,180.475681 L212.348777,180.475681 L212.348777,194.158505 Z M223.569253,199.782734 C222.375381,199.782734 221.274797,199.624175 220.267467,199.307053 C219.260138,198.989931 218.388065,198.514254 217.651222,197.88001 C216.914379,197.245765 216.340769,196.452972 215.930376,195.501605 C215.519982,194.550238 215.314788,193.431 215.314788,192.143856 L215.314788,180.475681 L220.407373,180.475681 L220.407373,192.087894 C220.407373,193.16984 220.663866,194.004606 221.176857,194.592215 C221.689849,195.179823 222.487307,195.473623 223.569253,195.473623 C224.6512,195.473623 225.448657,195.179823 225.961649,194.592215 C226.474641,194.004606 226.731133,193.16984 226.731133,192.087894 L226.731133,180.475681 L231.823718,180.475681 L231.823718,192.143856 C231.823718,193.431 231.618524,194.550238 231.208131,195.501605 C230.797737,196.452972 230.224127,197.245765 229.487284,197.88001 C228.750442,198.514254 227.878368,198.989931 226.871039,199.307053 C225.863709,199.624175 224.763125,199.782734 223.569253,199.782734 Z M239.714426,190.017282 L239.714426,199.502921 L234.929635,199.502921 L234.929635,180.22385 C234.929635,180.130579 234.957616,180.06529 235.013579,180.027981 C235.069541,179.990673 235.172138,180.037308 235.321372,180.167887 L247.26936,190.017282 L247.26936,180.475681 L252.054151,180.475681 L252.054151,199.782734 C252.054151,199.894659 252.02617,199.964612 251.970208,199.992593 C251.914245,200.020574 251.811648,199.969276 251.662414,199.838696 L239.714426,190.017282 Z M266.324582,180.475681 L271.836885,180.475681 L265.513126,188.730146 L272.592379,199.502921 L266.576413,199.502921 L262.043453,192.591556 L261.875565,192.801415 C261.76364,192.941322 261.623735,193.113872 261.455847,193.319068 C261.287958,193.524265 261.110746,193.738786 260.924203,193.962637 C260.737661,194.186488 260.579102,194.382354 260.448522,194.550243 L260.448522,199.502921 L255.355937,199.502921 L255.355937,180.475681 L260.448522,180.475681 L260.448522,188.36639 L266.324582,180.475681 Z M274.551065,180.475681 L279.64365,180.475681 L279.64365,199.502921 L274.551065,199.502921 L274.551065,180.475681 Z M283.057361,180.475681 L296.40441,180.475681 L296.40441,184.75681 L288.149946,184.75681 L288.149946,189.177845 L295.03333,189.177845 L295.03333,193.235125 L288.149946,193.235125 L288.149946,195.221792 L296.796148,195.221792 L296.796148,199.502921 L283.057361,199.502921 L283.057361,180.475681 Z" id="PLAYJUNKIE-Copy"></path>
        </g>
    </g>
</svg>