<?xml version="1.0" encoding="UTF-8" standalone="no"?>
<svg width="18px" height="18px" viewBox="0 0 18 18" version="1.1" xmlns="http://www.w3.org/2000/svg" xmlns:xlink="http://www.w3.org/1999/xlink">
    <!-- Generator: Sketch 41.2 (35397) - http://www.bohemiancoding.com/sketch -->
    <title>Combined Shape</title>
    <desc>Created with Sketch.</desc>
    <defs></defs>
    <g id="Page-1" stroke="none" stroke-width="1" fill="none" fill-rule="evenodd">
        <g id="6A-Quiz-Create---Trivia" transform="translate(-691.000000, -1162.000000)" fill="#414141">
            <g id="Group-13-Copy-3" transform="translate(633.000000, 1039.000000)">
                <g id="Group-36">
                    <g id="Group-31" transform="translate(26.000000, 112.000000)">
                        <g id="Group-15" transform="translate(21.000000, 0.000000)">
                            <path d="M22,18 L22,12.9950893 C22,11.8926228 21.1045695,11 20,11 C18.8877296,11 18,11.8932319 18,12.9950893 L18,18 L12.9950893,18 C11.8926228,18 11,18.8954305 11,20 C11,21.1122704 11.8932319,22 12.9950893,22 L18,22 L18,27.0049107 C18,28.1073772 18.8954305,29 20,29 C21.1122704,29 22,28.1067681 22,27.0049107 L22,22 L27.0049107,22 C28.1073772,22 29,21.1045695 29,20 C29,18.8877296 28.1067681,18 27.0049107,18 L22,18 Z" id="Combined-Shape"></path>
                        </g>
                    </g>
                </g>
            </g>
        </g>
    </g>
</svg>