<?xml version="1.0" encoding="UTF-8" standalone="no"?>
<svg width="20px" height="20px" viewBox="0 0 20 20" version="1.1" xmlns="http://www.w3.org/2000/svg" xmlns:xlink="http://www.w3.org/1999/xlink">
    <!-- Generator: Sketch 41.2 (35397) - http://www.bohemiancoding.com/sketch -->
    <title>Group 8</title>
    <desc>Created with Sketch.</desc>
    <defs></defs>
    <g id="Page-1" stroke="none" stroke-width="1" fill="none" fill-rule="evenodd">
        <g id="6A-Quiz-Create---Trivia" transform="translate(-780.000000, -406.000000)">
            <g id="Group-8" transform="translate(780.000000, 406.000000)">
                <circle id="Oval" fill="#D7D7D7" cx="10" cy="10" r="10"></circle>
                <path d="M10,11.4142136 L12.1245748,13.5387883 C12.5062237,13.9204373 13.1450096,13.9260582 13.5355339,13.5355339 C13.9287809,13.142287 13.9275152,12.5133017 13.5387883,12.1245748 L11.4142136,10 L13.5387883,7.87542525 C13.9204373,7.49377626 13.9260582,6.85499039 13.5355339,6.46446609 C13.142287,6.07121914 12.5133017,6.07248475 12.1245748,6.46121168 L10,8.58578644 L7.87542525,6.46121168 C7.49377626,6.0795627 6.85499039,6.0739418 6.46446609,6.46446609 C6.07121914,6.85771305 6.07248475,7.48669832 6.46121168,7.87542525 L8.58578644,10 L6.46121168,12.1245748 C6.0795627,12.5062237 6.0739418,13.1450096 6.46446609,13.5355339 C6.85771305,13.9287809 7.48669832,13.9275152 7.87542525,13.5387883 L10,11.4142136 Z" id="Combined-Shape" fill="#ABABAB"></path>
            </g>
        </g>
    </g>
</svg>