<?xml version="1.0" encoding="UTF-8" standalone="no"?>
<svg width="10px" height="6px" viewBox="0 0 10 6" version="1.1" xmlns="http://www.w3.org/2000/svg" xmlns:xlink="http://www.w3.org/1999/xlink">
    <!-- Generator: Sketch 41.2 (35397) - http://www.bohemiancoding.com/sketch -->
    <title>Combined Shape</title>
    <desc>Created with Sketch.</desc>
    <defs></defs>
    <g id="Page-1" stroke="none" stroke-width="1" fill="none" fill-rule="evenodd">
        <g id="6A-Quiz-Create---Trivia" transform="translate(-166.000000, -466.000000)" fill="#ABABAB">
            <g id="Group-18" transform="translate(160.000000, 429.000000)">
                <g id="Group-14-Copy" transform="translate(10.500000, 40.000000) scale(1, -1) translate(-10.500000, -40.000000) translate(0.000000, 30.000000)">
                    <path d="M13.0082806,8.00000103 C13.0077924,8.00000035 13.0073041,8 13.0068157,8 L8.01267436,8 C7.44762638,8 7.00974503,8.44771525 7.00974503,9 C7.00974503,9.55613518 7.45877178,10 8.01267436,10 L12.009745,10 L12.009745,13.9970707 C12.009745,14.5621186 12.4574603,15 13.009745,15 C13.5658802,15 14.009745,14.5509732 14.009745,13.9970707 L14.009745,9.00292933 C14.009745,9.00244092 14.0097447,9.0019526 14.009744,9.00146438 C14.0097447,9.00097669 14.009745,9.00048838 14.009745,9 C14.009745,8.7224226 13.8978838,8.47281392 13.716953,8.29240445 C13.535024,8.10909264 13.2854106,8 13.009745,8 C13.0092566,8 13.0087683,8.00000035 13.0082801,8.00000104 Z" id="Combined-Shape" transform="translate(10.509745, 11.500000) rotate(-45.000000) translate(-10.509745, -11.500000) "></path>
                </g>
            </g>
        </g>
    </g>
</svg>