<?xml version="1.0" encoding="UTF-8" standalone="no"?>
<svg width="15px" height="15px" viewBox="0 0 15 15" version="1.1" xmlns="http://www.w3.org/2000/svg" xmlns:xlink="http://www.w3.org/1999/xlink">
    <!-- Generator: Sketch 41.2 (35397) - http://www.bohemiancoding.com/sketch -->
    <title>F_icon</title>
    <desc>Created with Sketch.</desc>
    <defs></defs>
    <g id="Page-1" stroke="none" stroke-width="1" fill="none" fill-rule="evenodd">
        <g id="M7A-Quiz-Take---Trivia" transform="translate(-25.000000, -397.000000)">
            <g id="Group-21-Copy" transform="translate(10.000000, 382.000000)">
                <g id="Group-10">
                    <g id="F_icon" transform="translate(15.000000, 15.000000)">
                        <g id="Layer_1">
                            <path d="M14.1360232,14.9598649 C14.590888,14.9598649 14.959749,14.5910039 14.959749,14.1360232 L14.959749,0.857837838 C14.959749,0.402799228 14.5909459,0.0340540541 14.1360232,0.0340540541 L0.857837838,0.0340540541 C0.402799228,0.0340540541 0.0340540541,0.402799228 0.0340540541,0.857837838 L0.0340540541,14.1360232 C0.0340540541,14.5909459 0.402741313,14.9598649 0.857837838,14.9598649 L14.1360232,14.9598649 Z" id="Blue_1_" fill="#FFFFFF"></path>
                            <path d="M10.3325676,14.9598649 L10.3325676,9.17976834 L12.2726641,9.17976834 L12.563166,6.92716216 L10.3325676,6.92716216 L10.3325676,5.48901544 C10.3325676,4.83683398 10.513668,4.39239382 11.4488803,4.39239382 L12.6416988,4.39187259 L12.6416988,2.37712355 C12.4354054,2.34967181 11.7273359,2.28833977 10.9035521,2.28833977 C9.18376448,2.28833977 8.00635135,3.33810811 8.00635135,5.26592664 L8.00635135,6.92716216 L6.06127413,6.92716216 L6.06127413,9.17976834 L8.00635135,9.17976834 L8.00635135,14.9598649 L10.3325676,14.9598649 Z" id="f" fill="#3B5998"></path>
                        </g>
                    </g>
                </g>
            </g>
        </g>
    </g>
</svg>