<?xml version="1.0" encoding="UTF-8" standalone="no"?>
<svg width="101px" height="30px" viewBox="0 0 101 30" version="1.1" xmlns="http://www.w3.org/2000/svg" xmlns:xlink="http://www.w3.org/1999/xlink">
    <!-- Generator: Sketch 41.2 (35397) - http://www.bohemiancoding.com/sketch -->
    <title>Group 6</title>
    <desc>Created with Sketch.</desc>
    <defs>
        <linearGradient x1="78.9171327%" y1="-39.008908%" x2="-3.81219211%" y2="160.512354%" id="linearGradient-1">
            <stop stop-color="#FF491C" offset="0%"></stop>
            <stop stop-color="#FF9C1D" offset="100%"></stop>
        </linearGradient>
    </defs>
    <g id="Page-1" stroke="none" stroke-width="1" fill="none" fill-rule="evenodd">
        <g id="0A-Nav-Bar---Signed-out" transform="translate(-170.000000, -15.000000)" fill="url(#linearGradient-1)">
            <g id="Group-13">
                <g id="Group-6" transform="translate(170.000000, 15.000000)">
                    <path d="M96.4854456,11.9661495 C95.8700939,11.9661495 95.3168255,11.8984492 94.8256238,11.7630465 C94.334422,11.6276439 93.9026028,11.4583931 93.5301531,11.2552891 C93.1577035,11.0521852 92.8392368,10.8236966 92.5747435,10.5698166 C92.3102503,10.3159367 92.0916418,10.070523 91.9189115,9.83356841 L94.0564381,8.15796897 C94.3263292,8.50775915 94.6393981,8.80394801 94.9956543,9.04654443 C95.3519105,9.28914085 95.8053207,9.41043724 96.3558985,9.41043724 C96.7985199,9.41043724 97.1412764,9.33991608 97.3841784,9.19887165 C97.6270803,9.05782722 97.7485295,8.82369698 97.7485295,8.49647391 C97.7485295,8.24823571 97.6594668,8.05359732 97.4813387,7.91255289 C97.3032105,7.77150846 97.0306247,7.63892869 96.6635728,7.51480959 L95.3681021,7.05782793 C94.9686634,6.92242528 94.601617,6.7531745 94.2669521,6.55007052 C93.9322871,6.34696654 93.643508,6.10437377 93.4006061,5.82228491 C93.1577041,5.54019605 92.9687832,5.21579873 92.8338377,4.84908322 C92.6988921,4.4823677 92.6314204,4.06206161 92.6314204,3.58815233 C92.6314204,3.02397461 92.7339774,2.52750567 92.9390946,2.09873061 C93.1442119,1.66995554 93.4221955,1.31170807 93.7730539,1.02397743 C94.1239123,0.736246798 94.5260439,0.519041636 94.9794609,0.37235543 C95.4328779,0.225669224 95.9024814,0.152327221 96.3882853,0.152327221 C96.8740892,0.152327221 97.3086073,0.194639915 97.6918526,0.279266573 C98.075098,0.36389323 98.4124567,0.47672708 98.7039391,0.617771509 C98.9954214,0.758815938 99.2518141,0.919604175 99.4731248,1.10014104 C99.6944355,1.28067791 99.8860553,1.47249546 100.04799,1.67559944 L98.363878,3.52045134 C98.1371695,3.27221315 97.8888735,3.07193306 97.6189824,2.91960508 C97.3490913,2.76727709 96.9928405,2.69111425 96.5502191,2.69111425 C96.1939629,2.69111425 95.9267748,2.76727709 95.7486466,2.91960508 C95.5705185,3.07193306 95.4814558,3.26092976 95.4814558,3.48660085 C95.4814558,3.71227193 95.5435298,3.8871644 95.6676797,4.0112835 C95.7918296,4.1354026 95.9888471,4.24259475 96.2587382,4.33286319 L97.7161427,4.84062059 C98.2667205,5.03244102 98.7309262,5.24400449 99.1087737,5.47531735 C99.4866212,5.70663021 99.7888946,5.96614807 100.015603,6.2538787 C100.242312,6.54160934 100.406943,6.85754412 100.509501,7.20169252 C100.61206,7.54584093 100.663338,7.92101348 100.663338,8.32722144 C100.663338,8.85754849 100.582372,9.34555489 100.420438,9.79125529 C100.258503,10.2369557 100.007508,10.6205908 99.6674454,10.9421721 C99.3273826,11.2637534 98.8928645,11.5148087 98.363878,11.6953456 C97.8348915,11.8758824 97.2087537,11.9661495 96.4854456,11.9661495 Z M89.4939524,3.23272214 C89.1916744,3.13117016 88.9568726,2.94781515 88.7895402,2.68265162 C88.6222077,2.4174881 88.5385427,2.11001585 88.5385427,1.76022567 C88.5385427,1.27503283 88.6977761,0.885756051 89.0162475,0.592383639 C89.334719,0.299011227 89.7044642,0.152327221 90.1254943,0.152327221 C90.3414072,0.152327221 90.5492202,0.191819069 90.7489396,0.270803949 C90.9486589,0.349788829 91.1240855,0.459801834 91.2752245,0.600846262 C91.4263635,0.741890691 91.5478127,0.911141467 91.6395756,1.10860367 C91.7313386,1.30606587 91.7772194,1.52327103 91.7772194,1.76022567 C91.7772194,2.05359808 91.723242,2.34414525 91.6152856,2.63187588 C91.5073291,2.91960652 91.3507947,3.21015368 91.1456774,3.50352609 L90.1254943,5.00987306 L88.8947972,5.00987306 L89.4939524,3.23272214 Z M80.0410649,0.287729196 L87.7653087,0.287729196 L87.7653087,2.87729196 L82.9882606,2.87729196 L82.9882606,5.55148096 L86.9718329,5.55148096 L86.9718329,8.00564175 L82.9882606,8.00564175 L82.9882606,9.20733427 L87.9920161,9.20733427 L87.9920161,11.796897 L80.0410649,11.796897 L80.0410649,0.287729196 Z M74.3288489,11.9153738 C74.3072576,11.9717915 74.2748712,12 74.2316886,12 C74.188506,12 74.1561196,11.9717915 74.1345283,11.9153738 L68.9526457,0.287729196 L72.094162,0.287729196 L74.3450423,5.65303244 L76.531149,0.287729196 L79.5269249,0.287729196 L74.3288489,11.9153738 Z M63.8233915,11.796897 L60.9409693,11.796897 L66.3009791,0.0846262341 C66.3225704,0.0282084626 66.3549569,0 66.3981394,0 C66.441322,0 66.4737085,0.0282084626 66.4952997,0.0846262341 L71.8391162,11.796897 L68.7947602,11.796897 L68.3737322,10.8152327 L64.2282261,10.8152327 L63.8233915,11.796897 Z M66.2685924,5.83921016 L65.1674423,8.51339915 L67.4021292,8.51339915 L66.2685924,5.83921016 Z M52.0062701,0.287729196 L56.2651299,0.287729196 C57.0532118,0.287729196 57.7873045,0.42030897 58.46743,0.685472496 C59.1475555,0.950636023 59.7386081,1.33145027 60.2406055,1.82792666 C60.7426028,2.32440305 61.133939,2.92806415 61.4146257,3.63892807 C61.6953125,4.34979199 61.8356537,5.15091233 61.8356537,6.04231312 C61.8356537,6.93371391 61.6953125,7.73483425 61.4146257,8.44569817 C61.133939,9.15656209 60.7426028,9.76022319 60.2406055,10.2566996 C59.7386081,10.753176 59.1475555,11.1339902 58.46743,11.3991537 C57.7873045,11.6643173 57.0532118,11.796897 56.2651299,11.796897 L52.0062701,11.796897 L52.0062701,0.287729196 Z M55.9412622,9.19040903 C56.8373005,9.19040903 57.5417057,8.90550355 58.0544987,8.33568406 C58.5672917,7.76586457 58.8236844,7.00141523 58.8236844,6.04231312 C58.8236844,5.083211 58.5672917,4.31876166 58.0544987,3.74894217 C57.5417057,3.17912268 56.8373005,2.89421721 55.9412622,2.89421721 L54.9534658,2.89421721 L54.9534658,9.19040903 L55.9412622,9.19040903 Z M40.11223,0.287729196 L43.0594258,0.287729196 L43.0594258,9.20733427 L47.7393136,9.20733427 L47.7393136,11.796897 L40.11223,11.796897 L40.11223,0.287729196 Z M31.6309455,0.287729196 L34.5781413,0.287729196 L34.5781413,9.20733427 L39.2580291,9.20733427 L39.2580291,11.796897 L31.6309455,11.796897 L31.6309455,0.287729196 Z M23.1010809,11.796897 L20.2186587,11.796897 L25.5786685,0.0846262341 C25.6002598,0.0282084626 25.6326463,0 25.6758288,0 C25.7190114,0 25.7513978,0.0282084626 25.7729891,0.0846262341 L31.1168056,11.796897 L28.0724496,11.796897 L27.6514216,10.8152327 L23.5059155,10.8152327 L23.1010809,11.796897 Z M25.5462818,5.83921016 L24.4451317,8.51339915 L26.6798186,8.51339915 L25.5462818,5.83921016 Z M16.0448141,2.87729196 L13.1300051,2.87729196 L13.1300051,0.287729196 L21.9068189,0.287729196 L21.9068189,2.87729196 L18.9920099,2.87729196 L18.9920099,11.796897 L16.0448141,11.796897 L16.0448141,2.87729196 Z" id="Combined-Shape"></path>
                    <path d="M3.94573333,23.7325714 L5.96573333,23.7325714 L5.96573333,25.392 C6.42360229,25.2091419 6.7714877,24.8982879 7.0094,24.4594286 C7.2473123,24.0205692 7.36626667,23.4994316 7.36626667,22.896 C7.36626667,22.5302839 7.31240054,22.1874302 7.20466667,21.8674286 C7.09693279,21.547427 6.93982325,21.2708583 6.73333333,21.0377143 C6.52684341,20.8045703 6.27546815,20.6217149 5.9792,20.4891429 C5.68293185,20.3565708 5.34177971,20.2902857 4.95573333,20.2902857 C4.56968696,20.2902857 4.22853481,20.3565708 3.93226667,20.4891429 C3.63599852,20.6217149 3.38462325,20.8045703 3.17813333,21.0377143 C2.97164341,21.2708583 2.81453387,21.547427 2.7068,21.8674286 C2.59906613,22.1874302 2.5452,22.5302839 2.5452,22.896 C2.5452,23.4994316 2.66415437,24.0205692 2.90206667,24.4594286 C3.13997897,24.8982879 3.48786438,25.2091419 3.94573333,25.392 L3.94573333,23.7325714 Z M5.96573333,29.2594286 L3.94573333,29.2594286 L3.94573333,27.5862857 C3.39808615,27.4765709 2.88635793,27.2845728 2.41053333,27.0102857 C1.93470873,26.7359986 1.52173508,26.3954306 1.1716,25.9885714 C0.821464916,25.5817123 0.54540101,25.1177169 0.3434,24.5965714 C0.14139899,24.075426 0.0404,23.5085745 0.0404,22.896 C0.0404,22.1919965 0.172820898,21.5474315 0.437666667,20.9622857 C0.702512435,20.3771399 1.05937553,19.8742878 1.50826667,19.4537143 C1.9571578,19.0331408 2.4778637,18.7062869 3.0704,18.4731429 C3.6629363,18.2399988 4.29137446,18.1234286 4.95573333,18.1234286 C5.61111439,18.1234286 6.23730813,18.2399988 6.83433333,18.4731429 C7.43135854,18.7062869 7.95430887,19.0331408 8.4032,19.4537143 C8.85209113,19.8742878 9.20895423,20.3771399 9.4738,20.9622857 C9.73864577,21.5474315 9.87106667,22.1919965 9.87106667,22.896 C9.87106667,23.5085745 9.77006768,24.075426 9.56806667,24.5965714 C9.36606566,25.1177169 9.09000175,25.5817123 8.73986667,25.9885714 C8.38973158,26.3954306 7.97675793,26.7359986 7.50093333,27.0102857 C7.02510873,27.2845728 6.51338052,27.4765709 5.96573333,27.5862857 L5.96573333,29.2594286 Z M14.4733,27.696 C13.8987193,27.696 13.3690358,27.6182865 12.8842333,27.4628571 C12.3994309,27.3074278 11.979724,27.0742873 11.6251,26.7634286 C11.270476,26.4525699 10.9944121,26.0640023 10.7969,25.5977143 C10.5993879,25.1314262 10.5006333,24.5828603 10.5006333,23.952 L10.5006333,18.2331429 L12.9515667,18.2331429 L12.9515667,23.9245714 C12.9515667,24.4548598 13.0750099,24.8639986 13.3219,25.152 C13.5687901,25.4400014 13.9525863,25.584 14.4733,25.584 C14.9940137,25.584 15.3778099,25.4400014 15.6247,25.152 C15.8715901,24.8639986 15.9950333,24.4548598 15.9950333,23.9245714 L15.9950333,18.2331429 L18.4459667,18.2331429 L18.4459667,23.952 C18.4459667,24.5828603 18.3472121,25.1314262 18.1497,25.5977143 C17.9521879,26.0640023 17.676124,26.4525699 17.3215,26.7634286 C16.966876,27.0742873 16.5471691,27.3074278 16.0623667,27.4628571 C15.5775642,27.6182865 15.0478807,27.696 14.4733,27.696 Z M19.5738,18.2331429 L22.0247333,18.2331429 L22.0247333,27.5588571 L19.5738,27.5588571 L19.5738,18.2331429 Z M22.6408333,27.5588571 C22.5600329,27.5588571 22.5465664,27.5131433 22.6004333,27.4217143 L26.6539,20.3314286 L23.2872333,20.3314286 L23.2872333,18.2331429 L30.4111,18.2331429 C30.4919004,18.2331429 30.5053669,18.2788567 30.4515,18.3702857 L26.3980333,25.4605714 L30.1148333,25.4605714 L30.1148333,27.5588571 L22.6408333,27.5588571 Z M33.9191667,18.2331429 L40.3427667,18.2331429 L40.3427667,20.3314286 L36.3701,20.3314286 L36.3701,22.4982857 L39.6829,22.4982857 L39.6829,24.4868571 L36.3701,24.4868571 L36.3701,25.4605714 L40.5313,25.4605714 L40.5313,27.5588571 L33.9191667,27.5588571 L33.9191667,18.2331429 Z M41.2955333,18.0685714 C41.2955333,17.9679995 41.3359329,17.9588567 41.4167333,18.0411429 L46.1166,22.6628571 L50.7626,18.0411429 C50.7895335,18.0137141 50.8164665,18.0022857 50.8434,18.0068571 C50.8703335,18.0114286 50.8838,18.0319998 50.8838,18.0685714 L50.8838,27.5588571 L48.4328667,27.5588571 L48.4328667,23.2662857 L46.1300667,25.584 C46.0851776,25.6297145 46.044778,25.6297145 46.0088667,25.584 L43.7464667,23.2662857 L43.7464667,27.5588571 L41.2955333,27.5588571 L41.2955333,18.0685714 Z M55.4052333,23.4308571 C55.9528805,23.4308571 56.3411655,23.2891443 56.5701,23.0057143 C56.7990345,22.7222843 56.9135,22.3520023 56.9135,21.8948571 C56.9135,21.6662846 56.8865669,21.4582867 56.8327,21.2708571 C56.7788331,21.0834276 56.6913006,20.9211435 56.5701,20.784 C56.4488994,20.6468565 56.2940343,20.539429 56.1055,20.4617143 C55.9169657,20.3839996 55.6835458,20.3451429 55.4052333,20.3451429 L54.5029667,20.3451429 L54.5029667,23.4308571 L55.4052333,23.4308571 Z M54.5029667,27.5588571 L52.0520333,27.5588571 L52.0520333,18.2331429 L55.5264333,18.2331429 C56.1459031,18.2331429 56.6935421,18.3268562 57.1693667,18.5142857 C57.6451913,18.7017152 58.0469428,18.9599984 58.3746333,19.2891429 C58.7023239,19.6182874 58.9514547,20.0045692 59.1220333,20.448 C59.292612,20.8914308 59.3779,21.3737117 59.3779,21.8948571 C59.3779,22.4160026 59.292612,22.8982835 59.1220333,23.3417143 C58.9514547,23.7851451 58.7023239,24.1691412 58.3746333,24.4937143 C58.0469428,24.8182873 57.6451913,25.0742848 57.1693667,25.2617143 C56.6935421,25.4491438 56.1459031,25.5428571 55.5264333,25.5428571 L54.5029667,25.5428571 L54.5029667,27.5588571 Z M64.6265333,25.5154286 C65.0125797,25.5154286 65.3537319,25.4468578 65.65,25.3097143 C65.9462681,25.1725707 66.1976434,24.9874297 66.4041333,24.7542857 C66.6106233,24.5211417 66.7677328,24.244573 66.8754667,23.9245714 C66.9832005,23.6045698 67.0370667,23.2617161 67.0370667,22.896 C67.0370667,22.5302839 66.9832005,22.1874302 66.8754667,21.8674286 C66.7677328,21.547427 66.6106233,21.2708583 66.4041333,21.0377143 C66.1976434,20.8045703 65.9462681,20.6217149 65.65,20.4891429 C65.3537319,20.3565708 65.0125797,20.2902857 64.6265333,20.2902857 C64.240487,20.2902857 63.8993348,20.3565708 63.6030667,20.4891429 C63.3067985,20.6217149 63.0554233,20.8045703 62.8489333,21.0377143 C62.6424434,21.2708583 62.4853339,21.547427 62.3776,21.8674286 C62.2698661,22.1874302 62.216,22.5302839 62.216,22.896 C62.216,23.2617161 62.2698661,23.6045698 62.3776,23.9245714 C62.4853339,24.244573 62.6424434,24.5211417 62.8489333,24.7542857 C63.0554233,24.9874297 63.3067985,25.1725707 63.6030667,25.3097143 C63.8993348,25.4468578 64.240487,25.5154286 64.6265333,25.5154286 Z M64.6265333,27.6822857 C63.9621745,27.6822857 63.3337363,27.5657155 62.7412,27.3325714 C62.1486637,27.0994274 61.6279578,26.7702878 61.1790667,26.3451429 C60.7301755,25.9199979 60.3733124,25.4148601 60.1084667,24.8297143 C59.8436209,24.2445685 59.7112,23.6000035 59.7112,22.896 C59.7112,22.1919965 59.8436209,21.5474315 60.1084667,20.9622857 C60.3733124,20.3771399 60.7301755,19.8742878 61.1790667,19.4537143 C61.6279578,19.0331408 62.1486637,18.7062869 62.7412,18.4731429 C63.3337363,18.2399988 63.9621745,18.1234286 64.6265333,18.1234286 C65.2819144,18.1234286 65.9081081,18.2399988 66.5051333,18.4731429 C67.1021585,18.7062869 67.6251089,19.0331408 68.074,19.4537143 C68.5228911,19.8742878 68.8797542,20.3771399 69.1446,20.9622857 C69.4094458,21.5474315 69.5418667,22.1919965 69.5418667,22.896 C69.5418667,23.6000035 69.4094458,24.2445685 69.1446,24.8297143 C68.8797542,25.4148601 68.5228911,25.9199979 68.074,26.3451429 C67.6251089,26.7702878 67.1021585,27.0994274 66.5051333,27.3325714 C65.9081081,27.5657155 65.2819144,27.6822857 64.6265333,27.6822857 Z M73.6189,23.4308571 C74.1665472,23.4308571 74.5548322,23.2891443 74.7837667,23.0057143 C75.0127011,22.7222843 75.1271667,22.3520023 75.1271667,21.8948571 C75.1271667,21.6662846 75.1002336,21.4582867 75.0463667,21.2708571 C74.9924997,21.0834276 74.9049673,20.9211435 74.7837667,20.784 C74.6625661,20.6468565 74.5077009,20.539429 74.3191667,20.4617143 C74.1306324,20.3839996 73.8972125,20.3451429 73.6189,20.3451429 L72.7166333,20.3451429 L72.7166333,23.4308571 L73.6189,23.4308571 Z M77.5646333,27.5588571 L74.9117,27.5588571 L73.6323667,25.4194286 L72.7166333,25.4194286 L72.7166333,27.5588571 L70.2657,27.5588571 L70.2657,18.2331429 L73.7401,18.2331429 C74.3595698,18.2331429 74.9072087,18.3268562 75.3830333,18.5142857 C75.8588579,18.7017152 76.2606095,18.9599984 76.5883,19.2891429 C76.9159905,19.6182874 77.1651214,20.0045692 77.3357,20.448 C77.5062786,20.8914308 77.5915667,21.3737117 77.5915667,21.8948571 C77.5915667,22.571432 77.4501681,23.1679974 77.1673667,23.6845714 C76.8845653,24.2011454 76.473836,24.6102842 75.9351667,24.912 L77.5646333,27.5588571 Z M78.3692667,18.2331429 L80.8202,18.2331429 L80.8202,27.5588571 L78.3692667,27.5588571 L78.3692667,18.2331429 Z M85.9207,27.696 C85.3461193,27.696 84.8164358,27.6182865 84.3316333,27.4628571 C83.8468309,27.3074278 83.427124,27.0742873 83.0725,26.7634286 C82.717876,26.4525699 82.4418121,26.0640023 82.2443,25.5977143 C82.0467879,25.1314262 81.9480333,24.5828603 81.9480333,23.952 L81.9480333,18.2331429 L84.3989667,18.2331429 L84.3989667,23.9245714 C84.3989667,24.4548598 84.5224099,24.8639986 84.7693,25.152 C85.0161901,25.4400014 85.3999863,25.584 85.9207,25.584 C86.4414137,25.584 86.8252099,25.4400014 87.0721,25.152 C87.3189901,24.8639986 87.4424333,24.4548598 87.4424333,23.9245714 L87.4424333,18.2331429 L89.8933667,18.2331429 L89.8933667,23.952 C89.8933667,24.5828603 89.7946121,25.1314262 89.5971,25.5977143 C89.3995879,26.0640023 89.123524,26.4525699 88.7689,26.7634286 C88.414276,27.0742873 87.9945691,27.3074278 87.5097667,27.4628571 C87.0249642,27.6182865 86.4952807,27.696 85.9207,27.696 Z M90.9673333,18.0685714 C90.9673333,17.9679995 91.0077329,17.9588567 91.0885333,18.0411429 L95.7884,22.6628571 L100.4344,18.0411429 C100.461333,18.0137141 100.488267,18.0022857 100.5152,18.0068571 C100.542133,18.0114286 100.5556,18.0319998 100.5556,18.0685714 L100.5556,27.5588571 L98.1046667,27.5588571 L98.1046667,23.2662857 L95.8018667,25.584 C95.7569776,25.6297145 95.716578,25.6297145 95.6806667,25.584 L93.4182667,23.2662857 L93.4182667,27.5588571 L90.9673333,27.5588571 L90.9673333,18.0685714 Z" id="Tall-Dave’s-Quiz-Emp-Copy"></path>
                </g>
            </g>
        </g>
    </g>
</svg>