<?xml version="1.0" encoding="UTF-8" standalone="no"?>
<svg width="15px" height="15px" viewBox="0 0 15 15" version="1.1" xmlns="http://www.w3.org/2000/svg" xmlns:xlink="http://www.w3.org/1999/xlink">
    <!-- Generator: Sketch 41.2 (35397) - http://www.bohemiancoding.com/sketch -->
    <title>Group 8</title>
    <desc>Created with Sketch.</desc>
    <defs></defs>
    <g id="Page-1" stroke="none" stroke-width="1" fill="none" fill-rule="evenodd">
        <g id="M7A-Quiz-Take---Trivia" transform="translate(-132.000000, -397.000000)" fill="#FFFFFF">
            <g id="Group-21-Copy" transform="translate(10.000000, 382.000000)">
                <g id="Group-20" transform="translate(108.000000, 0.000000)">
                    <g id="Group-8" transform="translate(14.000000, 15.000000)">
                        <path d="M7.406639,8.8817842e-16 C3.29875519,8.8817842e-16 -8.8817842e-16,3.32635983 -8.8817842e-16,7.46861925 C-8.8817842e-16,10.5439331 1.80497925,13.1171548 4.41908714,14.3096234 C4.41908714,13.8075314 4.41908714,13.1799163 4.54356846,12.6150628 C4.66804979,11.9874477 5.47717842,8.53556485 5.47717842,8.53556485 C5.47717842,8.53556485 5.22821577,8.0334728 5.22821577,7.34309623 C5.22821577,6.21338912 5.85062241,5.39748954 6.65975104,5.39748954 C7.34439834,5.39748954 7.65560166,5.89958159 7.65560166,6.52719665 C7.65560166,7.21757322 7.21991701,8.22175732 7.03319502,9.16317992 C6.84647303,9.9790795 7.46887967,10.6066946 8.21576763,10.6066946 C9.6473029,10.6066946 10.5809129,8.78661088 10.5809129,6.65271967 C10.5809129,5.0209205 9.46058091,3.82845188 7.53112033,3.82845188 C5.29045643,3.82845188 3.92116183,5.52301255 3.92116183,7.40585774 C3.92116183,8.0334728 4.10788382,8.53556485 4.41908714,8.84937238 C4.54356846,9.0376569 4.60580913,9.10041841 4.54356846,9.28870293 C4.4813278,9.41422594 4.41908714,9.72803347 4.41908714,9.91631799 C4.35684647,10.1046025 4.23236515,10.167364 4.04564315,10.1046025 C2.98755187,9.66527197 2.55186722,8.53556485 2.55186722,7.28033473 C2.55186722,5.14644351 4.29460581,2.63598326 7.84232365,2.63598326 C10.6431535,2.63598326 12.5103734,4.70711297 12.5103734,6.90376569 C12.5103734,9.85355649 10.8921162,11.9874477 8.52697095,11.9874477 C7.71784232,11.9874477 6.97095436,11.5481172 6.7219917,11.0460251 C6.7219917,11.0460251 6.28630705,12.7405858 6.22406639,13.1171548 C6.0373444,13.6820084 5.78838174,14.2468619 5.47717842,14.6861925 C6.16182573,14.874477 6.84647303,15 7.593361,15 C11.7012448,15 15,11.6736402 15,7.53138075 C14.813278,3.32635983 11.5145228,8.8817842e-16 7.406639,8.8817842e-16 Z" id="Shape"></path>
                    </g>
                </g>
            </g>
        </g>
    </g>
</svg>