<?xml version="1.0" encoding="UTF-8" standalone="no"?>
<svg width="15px" height="13px" viewBox="0 0 15 13" version="1.1" xmlns="http://www.w3.org/2000/svg" xmlns:xlink="http://www.w3.org/1999/xlink">
    <!-- Generator: Sketch 41.2 (35397) - http://www.bohemiancoding.com/sketch -->
    <title>Shape</title>
    <desc>Created with Sketch.</desc>
    <defs></defs>
    <g id="Page-1" stroke="none" stroke-width="1" fill="none" fill-rule="evenodd">
        <g id="M7A-Quiz-Take---Trivia" transform="translate(-78.000000, -397.000000)" fill="#F7F7F7">
            <g id="Group-21-Copy" transform="translate(10.000000, 382.000000)">
                <g id="Group-14" transform="translate(54.000000, 0.000000)">
                    <g id="Twitter_bird_logo_2012" transform="translate(14.000000, 15.000000)">
                        <g id="Group" transform="translate(0.041000, 0.007000)">
                            <path d="M4.685935,12.109525 C10.308935,12.109525 13.383935,7.451125 13.383935,3.411525 C13.383935,3.27921 13.38124,3.147495 13.375305,3.016375 C13.972205,2.584865 14.491005,2.046375 14.900205,1.433375 C14.352455,1.676845 13.763005,1.840745 13.144655,1.91465 C13.775805,1.536185 14.260355,0.9375 14.488955,0.2238 C13.898305,0.573955 13.244205,0.82845 12.547755,0.96585 C11.989905,0.37165 11.195705,0 10.316305,0 C8.628105,0 7.259105,1.36905 7.259105,3.0566 C7.259105,3.29649 7.285925,3.52983 7.338375,3.75365 C4.797625,3.625805 2.544675,2.40935 1.036875,0.55965 C0.774335,1.01142 0.62295,1.5362 0.62295,2.09615 C0.62295,3.15675 1.16265,4.09305 1.98335,4.6408 C1.4818,4.625304 1.01065,4.487625 0.59885,4.25846 C0.5984,4.271286 0.5984,4.2837905 0.5984,4.2974985 C0.5984,5.7779985 1.65215,7.0140985 3.05095,7.2941985 C2.79407,7.3642285 2.5238,7.4017785 2.24485,7.4017785 C2.04817,7.4017785 1.85655,7.3824205 1.6703,7.3466485 C2.05949,8.5612985 3.18805,9.4451985 4.52605,9.4698985 C3.47975,10.2899985 2.1617,10.7784485 0.7292,10.7784485 C0.48275,10.7784485 0.239285,10.7644305 0,10.7361315 C1.35295,11.6033315 2.95945,12.1093315 4.6861,12.1093315" id="Shape"></path>
                        </g>
                    </g>
                </g>
            </g>
        </g>
    </g>
</svg>