<?xml version="1.0" encoding="UTF-8" standalone="no"?>
<svg width="12px" height="12px" viewBox="0 0 12 12" version="1.1" xmlns="http://www.w3.org/2000/svg" xmlns:xlink="http://www.w3.org/1999/xlink">
    <!-- Generator: Sketch 41.2 (35397) - http://www.bohemiancoding.com/sketch -->
    <title>Combined Shape</title>
    <desc>Created with Sketch.</desc>
    <defs></defs>
    <g id="Page-1" stroke="none" stroke-width="1" fill="none" fill-rule="evenodd">
        <g id="2C-Dropdown---Create" transform="translate(-1079.000000, -89.000000)" fill="#595959">
            <g id="Group-14" transform="translate(950.000000, 80.000000)">
                <g id="Group-15" transform="translate(120.000000, 0.000000)">
                    <path d="M16.3333333,13.6666667 L16.3333333,10.3300595 C16.3333333,9.59508187 15.7363797,9 15,9 C14.2584864,9 13.6666667,9.59548793 13.6666667,10.3300595 L13.6666667,13.6666667 L10.3300595,13.6666667 C9.59508187,13.6666667 9,14.2636203 9,15 C9,15.7415136 9.59548793,16.3333333 10.3300595,16.3333333 L13.6666667,16.3333333 L13.6666667,19.6699405 C13.6666667,20.4049181 14.2636203,21 15,21 C15.7415136,21 16.3333333,20.4045121 16.3333333,19.6699405 L16.3333333,16.3333333 L19.6699405,16.3333333 C20.4049181,16.3333333 21,15.7363797 21,15 C21,14.2584864 20.4045121,13.6666667 19.6699405,13.6666667 L16.3333333,13.6666667 Z" id="Combined-Shape"></path>
                </g>
            </g>
        </g>
    </g>
</svg>